<svg width="52" height="52" viewBox="0 0 52 52" fill="none" xmlns="http://www.w3.org/2000/svg">
<g clip-path="url(#clip0_268_111)">
<path d="M36.7291 34.2542C36.2407 34.2542 35.7723 34.4482 35.4269 34.7936C35.0816 35.1389 34.8875 35.6073 34.8875 36.0958C34.8875 36.5842 35.0816 37.0526 35.4269 37.3979C35.7723 37.7433 36.2407 37.9373 36.7291 37.9373C37.2175 37.9373 37.6859 37.7433 38.0312 37.3979C38.3766 37.0526 38.5706 36.5842 38.5706 36.0958C38.5706 35.6073 38.3766 35.1389 38.0312 34.7936C37.6859 34.4482 37.2175 34.2542 36.7291 34.2542ZM14.6941 34.2209C14.4523 34.2208 14.2129 34.2683 13.9894 34.3607C13.766 34.4532 13.563 34.5887 13.392 34.7596C13.0465 35.1047 12.8523 35.5729 12.8521 36.0612C12.852 36.303 12.8995 36.5424 12.992 36.7659C13.0844 36.9893 13.2199 37.1923 13.3908 37.3633C13.5617 37.5344 13.7646 37.6701 13.9879 37.7627C14.2113 37.8553 14.4507 37.9031 14.6924 37.9032C15.1807 37.9034 15.6491 37.7096 15.9945 37.3645C16.34 37.0194 16.5342 36.5511 16.5344 36.0628C16.5346 35.5745 16.3408 35.1062 15.9957 34.7607C15.6506 34.4153 15.1824 34.2211 14.6941 34.2209ZM25.8668 19.6991H21.5735V23.9923H17.2794V28.2864H21.5735V32.5788H25.8668V28.2864H30.16V23.9923H25.8668V19.6991Z" fill="#FF0000" fill-opacity="0.94"/>
<path d="M44.8053 0.433838H6.96475C3.2565 0.433838 0.240501 3.45065 0.240501 7.15971V44.9954C0.240501 48.7045 3.25731 51.7221 6.96475 51.7221H44.8053C48.5136 51.7221 51.5304 48.7053 51.5304 44.9954V7.15971C51.5304 3.45146 48.5136 0.433838 44.8053 0.433838ZM27.222 14.4105H28.2994V13.8888C28.2994 12.961 29.1102 12.2102 30.1137 12.2102C31.1155 12.2102 31.9256 12.961 31.9256 13.8888V14.4105H32.9802V15.2352H27.2212V14.4105H27.222ZM14.6859 39.9067C13.6652 39.9067 12.6862 39.5012 11.9644 38.7794C11.2426 38.0576 10.8371 37.0787 10.8371 36.0579C10.8373 35.0371 11.2429 34.058 11.9646 33.336C12.6863 32.614 13.6651 32.2081 14.6859 32.2075C15.7069 32.2075 16.6861 32.613 17.408 33.335C18.13 34.0569 18.5356 35.0361 18.5356 36.0571C18.5356 37.0781 18.13 38.0572 17.408 38.7792C16.6861 39.5011 15.7069 39.9067 14.6859 39.9067ZM36.7299 39.9457C35.7256 39.9204 34.7709 39.5037 34.0695 38.7845C33.3681 38.0652 32.9755 37.1003 32.9755 36.0957C32.9755 35.091 33.3681 34.1262 34.0695 33.4069C34.7709 32.6876 35.7256 32.2709 36.7299 32.2457C38.8546 32.2457 40.5771 33.969 40.5771 36.0953C40.5771 38.2216 38.8554 39.9457 36.7299 39.9457ZM44.5494 36.1018H41.7284C41.7284 33.3401 39.4907 31.0927 36.7291 31.0927C33.9666 31.0927 31.7273 33.3401 31.7273 36.1018H19.6723C19.6723 33.3401 17.4338 31.0927 14.6721 31.0927C11.9088 31.0927 9.67038 33.3401 9.67038 36.1018H7.33281C6.50975 36.1018 5.86869 35.4786 5.86869 34.6742V17.8319C5.86869 16.9146 6.59263 16.1768 7.48069 16.1768H37.7455C38.896 16.1768 39.7369 16.748 40.1521 17.7482L43.1909 25.146C44.3406 25.3703 45.0296 25.8667 45.5487 28.7048L46.3702 33.8268C46.6659 35.494 45.7242 36.1018 44.5494 36.1018Z" fill="#FF0000" fill-opacity="0.94"/>
<path d="M33.1037 17.8945V24.891H41.1938L38.3565 17.8945H33.1037Z" fill="#FF0000" fill-opacity="0.94"/>
</g>
<defs>
<clipPath id="clip0_268_111">
<rect width="52" height="52" fill="white"/>
</clipPath>
</defs>
</svg>
