<svg width="52" height="52" viewBox="0 0 52 52" fill="none" xmlns="http://www.w3.org/2000/svg">
<path d="M21.125 8.125H30.875C31.306 8.125 31.7193 8.29621 32.024 8.60095C32.3288 8.9057 32.5 9.31902 32.5 9.75V13H19.5V9.75C19.5 9.31902 19.6712 8.9057 19.976 8.60095C20.2807 8.29621 20.694 8.125 21.125 8.125ZM16.25 9.75V13H12.1875C10.2481 13 8.38814 13.7704 7.01678 15.1418C5.64542 16.5131 4.875 18.3731 4.875 20.3125V38.1875C4.875 40.1269 5.64542 41.9869 7.01678 43.3582C8.38814 44.7296 10.2481 45.5 12.1875 45.5H39.8125C41.7519 45.5 43.6119 44.7296 44.9832 43.3582C46.3546 41.9869 47.125 40.1269 47.125 38.1875V20.3125C47.125 18.3731 46.3546 16.5131 44.9832 15.1418C43.6119 13.7704 41.7519 13 39.8125 13H35.75V9.75C35.75 8.45707 35.2364 7.21709 34.3221 6.30285C33.4079 5.38861 32.1679 4.875 30.875 4.875H21.125C19.8321 4.875 18.5921 5.38861 17.6779 6.30285C16.7636 7.21709 16.25 8.45707 16.25 9.75ZM26 22.75C26.431 22.75 26.8443 22.9212 27.149 23.226C27.4538 23.5307 27.625 23.944 27.625 24.375V27.625H30.875C31.306 27.625 31.7193 27.7962 32.024 28.101C32.3288 28.4057 32.5 28.819 32.5 29.25C32.5 29.681 32.3288 30.0943 32.024 30.399C31.7193 30.7038 31.306 30.875 30.875 30.875H27.625V34.125C27.625 34.556 27.4538 34.9693 27.149 35.274C26.8443 35.5788 26.431 35.75 26 35.75C25.569 35.75 25.1557 35.5788 24.851 35.274C24.5462 34.9693 24.375 34.556 24.375 34.125V30.875H21.125C20.694 30.875 20.2807 30.7038 19.976 30.399C19.6712 30.0943 19.5 29.681 19.5 29.25C19.5 28.819 19.6712 28.4057 19.976 28.101C20.2807 27.7962 20.694 27.625 21.125 27.625H24.375V24.375C24.375 23.944 24.5462 23.5307 24.851 23.226C25.1557 22.9212 25.569 22.75 26 22.75Z" fill="#4D9E9A"/>
</svg>
