<svg width="52" height="52" viewBox="0 0 52 52" fill="none" xmlns="http://www.w3.org/2000/svg">
<path d="M25.1875 35.75C26.2649 35.75 27.2983 35.322 28.0601 34.5601C28.822 33.7983 29.25 32.7649 29.25 31.6875C29.25 30.6101 28.822 29.5767 28.0601 28.8149C27.2983 28.053 26.2649 27.625 25.1875 27.625C24.1101 27.625 23.0767 28.053 22.3149 28.8149C21.553 29.5767 21.125 30.6101 21.125 31.6875C21.125 32.7649 21.553 33.7983 22.3149 34.5601C23.0767 35.322 24.1101 35.75 25.1875 35.75Z" fill="#FF6F00"/>
<path fill-rule="evenodd" clip-rule="evenodd" d="M12.1875 3.25H19.5C21.6549 3.25 23.7215 4.10602 25.2452 5.62976C26.769 7.15349 27.625 9.22012 27.625 11.375V15.4375C27.625 17.6822 29.445 19.5 31.6875 19.5H35.75C37.9049 19.5 39.9715 20.356 41.4952 21.8798C43.019 23.4035 43.875 25.4701 43.875 27.625V44.6875C43.875 46.93 42.055 48.75 39.8125 48.75H12.1875C11.1101 48.75 10.0767 48.322 9.31488 47.5601C8.55301 46.7983 8.125 45.7649 8.125 44.6875V7.3125C8.125 5.06783 9.945 3.25 12.1875 3.25ZM25.1875 39C26.6175 39 27.9543 38.5883 29.081 37.8777L31.3517 40.1483C31.6597 40.4354 32.0671 40.5916 32.4881 40.5842C32.9091 40.5768 33.3108 40.4062 33.6085 40.1085C33.9062 39.8108 34.0768 39.4091 34.0842 38.9881C34.0916 38.5671 33.9354 38.1597 33.6483 37.8517L31.3798 35.581C32.2432 34.2085 32.6259 32.5879 32.4677 30.9742C32.3095 29.3604 31.6195 27.845 30.506 26.6662C29.3926 25.4875 27.919 24.7122 26.3169 24.4623C24.7148 24.2125 23.075 24.5022 21.6555 25.286C20.2361 26.0697 19.1173 27.303 18.4753 28.792C17.8332 30.2809 17.7042 31.941 18.1086 33.5113C18.513 35.0815 19.4279 36.4728 20.7093 37.4664C21.9907 38.4599 23.566 38.9994 25.1875 39Z" fill="#FF6F00"/>
<path d="M30.875 11.375C30.8788 8.64188 29.8946 5.99945 28.1038 3.93469C31.7291 4.88836 35.0361 6.7876 37.6868 9.43826C40.3374 12.0889 42.2367 15.3959 43.1903 19.0212C41.1256 17.2304 38.4831 16.2462 35.75 16.25H31.6875C31.472 16.25 31.2653 16.1644 31.113 16.012C30.9606 15.8597 30.875 15.653 30.875 15.4375V11.375Z" fill="#FF6F00"/>
</svg>
