<svg width="52" height="52" viewBox="0 0 52 52" fill="none" xmlns="http://www.w3.org/2000/svg">
<path d="M25.5954 13.4225C25.9204 13.4225 26.2226 13.5135 26.494 13.663C27.1408 13.8905 27.6413 14.4511 27.7891 15.1466C27.8216 15.3416 27.6591 15.5204 27.4641 15.5204H26.7881H27.3504C27.4363 15.225 27.4072 14.908 27.2691 14.6331C27.1642 14.4211 27.0021 14.2427 26.8011 14.1181C26.6 13.9935 26.3682 13.9276 26.1316 13.9279C25.9383 13.9281 25.7476 13.9731 25.5746 14.0593C25.4016 14.1456 25.2509 14.2708 25.1344 14.4251C25.0179 14.5794 24.9387 14.7586 24.9031 14.9486C24.8675 15.1387 24.8764 15.3343 24.9291 15.5204H25.5076H24.3116C24.0679 15.5204 23.8729 15.2929 23.9541 15.0491C23.9682 14.9917 23.9845 14.9359 24.0029 14.8817L23.9541 14.8379C23.8874 14.7794 23.8345 14.7068 23.7993 14.6254C23.764 14.5439 23.7474 14.4557 23.7505 14.367C23.7536 14.2783 23.7764 14.1915 23.8173 14.1127C23.8581 14.0339 23.916 13.9652 23.9866 13.9116C24.4416 13.6029 25.0266 13.4225 25.5954 13.4225Z" fill="#76168D"/>
<path d="M25.5076 15.5187L25.5141 15.535H26.7816L26.7881 15.5187C26.842 15.4092 26.8672 15.2879 26.8614 15.1661C26.8557 15.0442 26.8191 14.9258 26.7551 14.8219C26.6912 14.718 26.6019 14.6321 26.4957 14.572C26.3895 14.512 26.2698 14.4799 26.1479 14.4787C26.0538 14.4777 25.9607 14.4971 25.8749 14.5356C25.8972 14.5575 25.9148 14.5838 25.9265 14.6129C25.9382 14.6419 25.9438 14.6731 25.9429 14.7044C25.942 14.7357 25.9347 14.7665 25.9214 14.7948C25.908 14.8231 25.889 14.8484 25.8654 14.8691C25.8419 14.8897 25.8143 14.9053 25.7845 14.9147C25.7546 14.9242 25.7232 14.9275 25.692 14.9242C25.6609 14.921 25.6307 14.9114 25.6035 14.8959C25.5762 14.8805 25.5524 14.8596 25.5336 14.8346C25.4678 14.9434 25.433 15.0681 25.4329 15.1953C25.435 15.3077 25.4605 15.4167 25.5076 15.5187ZM32.9729 13.4062C33.5416 13.4062 34.1266 13.585 34.5816 13.8937C34.8904 14.105 34.9066 14.56 34.6304 14.8037L34.5735 14.8573C34.5962 14.9191 34.6152 14.9825 34.6304 15.0475C34.6954 15.2912 34.5004 15.5187 34.2566 15.5187H33.0769L33.0704 15.535H31.8029L31.7947 15.5187H31.1204C30.9254 15.5187 30.7629 15.34 30.7954 15.145C30.927 14.4755 31.395 13.9262 32.0141 13.6857C32.3001 13.5135 32.6235 13.4062 32.9729 13.4062ZM33.0769 15.5187H33.6391C33.6716 15.405 33.6879 15.2912 33.6879 15.1775C33.6879 14.8456 33.556 14.5273 33.3214 14.2927C33.0867 14.058 32.7685 13.9262 32.4366 13.9262C31.7379 13.9262 31.1691 14.495 31.1691 15.1775C31.1691 15.3075 31.1854 15.405 31.2179 15.5187H31.7947C31.7425 15.4186 31.7173 15.3065 31.7216 15.1937C31.7216 15.0588 31.7606 14.9305 31.8289 14.8216C31.8567 14.8607 31.8963 14.89 31.9419 14.9053C31.9874 14.9205 32.0366 14.921 32.0825 14.9065C32.1283 14.8921 32.1684 14.8635 32.197 14.8249C32.2255 14.7863 32.2412 14.7396 32.2416 14.6916C32.242 14.6615 32.2365 14.6317 32.2254 14.6038C32.2142 14.5759 32.1976 14.5505 32.1766 14.5291C32.259 14.4952 32.3475 14.4786 32.4366 14.4803C32.5587 14.4813 32.6786 14.5132 32.785 14.5731C32.8915 14.633 32.9809 14.7189 33.0451 14.8229C33.1092 14.9268 33.1459 15.0453 33.1518 15.1673C33.1576 15.2893 33.1324 15.4107 33.0785 15.5203M29.2679 19.435C28.5366 19.435 27.8541 19.2562 27.2691 18.9475C27.0741 18.85 26.8629 19.0775 26.9766 19.2725C27.4641 20.02 28.3091 20.5237 29.2679 20.5237C30.2266 20.5237 31.0716 20.0362 31.5591 19.2725C31.6729 19.0775 31.4779 18.8662 31.2666 18.9637C30.6816 19.2562 29.9991 19.435 29.2679 19.435ZM28.0329 17.1762L28.7479 14.8687C28.9104 14.365 29.6254 14.365 29.7716 14.8687L30.4866 17.1762C30.6329 17.6475 30.2916 18.135 29.7879 18.135H28.7316C28.2441 18.135 27.8866 17.6475 28.0329 17.1762ZM24.2791 12.6912C24.2121 12.6924 24.1461 12.6748 24.0886 12.6403C24.0312 12.6058 23.9846 12.5559 23.9541 12.4962C23.8404 12.3337 23.9054 12.09 24.0841 11.9925C24.1329 11.96 25.3516 11.2775 26.7654 11.5375C26.9766 11.57 27.1066 11.765 27.0741 11.9762C27.0416 12.1712 26.8304 12.3175 26.6354 12.2687C25.4979 12.0575 24.4741 12.6425 24.4741 12.6425C24.4091 12.6912 24.3441 12.6912 24.2791 12.6912ZM34.0616 12.6425C34.1266 12.675 34.1916 12.6912 34.2566 12.6912C34.3866 12.6912 34.5166 12.6262 34.5979 12.4962C34.6226 12.4493 34.6375 12.3979 34.6417 12.3451C34.6459 12.2922 34.6392 12.2391 34.6222 12.1889C34.6052 12.1387 34.5781 12.0926 34.5426 12.0532C34.5071 12.0138 34.464 11.9821 34.4159 11.96C34.1965 11.8495 33.0671 11.284 31.7704 11.5212C31.7209 11.529 31.6736 11.5467 31.6311 11.5732C31.5887 11.5996 31.552 11.6343 31.5232 11.6753C31.4944 11.7162 31.4741 11.7625 31.4635 11.8114C31.4529 11.8603 31.4523 11.9108 31.4616 11.96C31.4941 12.1712 31.7054 12.3012 31.9004 12.2687C32.9176 12.0786 33.8552 12.5417 34.0324 12.6295L34.0616 12.6425Z" fill="#76168D"/>
<path d="M39.4079 17.2738C39.7554 16.5472 39.9082 15.7429 39.8512 14.9395C39.7942 14.1362 39.5295 13.3615 39.0829 12.6912C38.5954 11.9437 38.3354 11.0825 38.3354 10.1887V10.1725C38.3354 8.93991 37.8457 7.7578 36.9742 6.88622C36.1026 6.01465 34.9205 5.525 33.6879 5.525C33.4279 5.525 33.2004 5.41125 33.0541 5.2C32.2091 4.01375 30.8279 3.25 29.2679 3.25C27.7079 3.25 26.3266 4.01375 25.4816 5.2C25.3354 5.395 25.0916 5.525 24.8479 5.525C23.6153 5.525 22.4332 6.01465 21.5616 6.88622C20.69 7.7578 20.2004 8.93991 20.2004 10.1725V10.1887C20.2004 11.0825 19.9404 11.9437 19.4529 12.6912C19.0063 13.3615 18.7415 14.1362 18.6846 14.9395C18.6276 15.7429 18.7804 16.5472 19.1279 17.2738C19.2254 17.485 19.2254 17.7125 19.1279 17.9237C18.7958 18.6061 18.6403 19.3608 18.6756 20.1188C18.711 20.8768 18.936 21.6139 19.3301 22.2623C19.7242 22.9108 20.2747 23.45 20.9313 23.8304C21.5879 24.2109 22.3294 24.4205 23.088 24.44L20.5579 27.1537C20.0216 27.7225 19.6966 28.4862 19.6966 29.3312C19.6966 30.1437 20.0054 30.8913 20.4929 31.4438C20.6391 31.6063 20.5416 31.8825 20.3304 31.915C17.9513 32.3216 15.7884 33.545 14.2141 35.3744C12.6397 37.2038 11.7524 39.5249 11.7049 41.938C11.1816 42.0871 10.7156 42.3911 10.3682 42.8098C10.0208 43.2286 9.80809 43.7427 9.75813 44.2845L9.7565 44.3073V44.3284C9.71913 44.9345 9.88163 45.5146 10.1969 45.994C10.146 46.3844 10.1811 46.7811 10.2999 47.1565C10.4186 47.5318 10.6181 47.8766 10.8843 48.1666C10.8929 48.2165 10.9032 48.2674 10.9151 48.3194L10.9184 48.3356C11.2304 49.6243 12.4118 50.375 13.5704 50.375H15.2636C15.3221 50.375 16.3654 50.3783 16.9098 50.2872C17.3893 50.2159 17.8662 50.1281 18.3398 50.024C19.8207 49.7067 21.2763 49.2809 22.6948 48.75H33.1029C34.6629 48.75 35.9304 47.4825 35.9304 45.9225V26.0812C35.9304 25.4962 35.8134 24.9405 35.6005 24.4303C36.3432 24.3832 37.063 24.1541 37.6962 23.763C38.3294 23.372 38.8566 22.8311 39.2313 22.188C39.6059 21.545 39.8165 20.8196 39.8445 20.0759C39.8725 19.3322 39.7169 18.5931 39.3916 17.9237C39.3494 17.8201 39.3291 17.7089 39.3319 17.5971C39.3347 17.4852 39.3606 17.3751 39.4079 17.2738ZM36.3041 12.2102C36.3461 12.4167 36.3678 12.6268 36.3691 12.8375L36.361 13.0406C36.879 13.1413 37.346 13.4189 37.6818 13.8259C38.0177 14.2329 38.2016 14.744 38.2021 15.2717C38.2019 15.8347 37.9929 16.3775 37.6156 16.7954C37.2383 17.2132 36.7195 17.4762 36.1595 17.5337C35.7906 21.2453 32.8299 23.6925 29.2695 23.6925C25.8212 23.6925 22.9369 21.385 22.4201 17.8831C22.4039 17.7672 22.3898 17.6502 22.3779 17.5321C21.8369 17.474 21.3348 17.2238 20.9626 16.827C20.5904 16.4302 20.3728 15.9131 20.3494 15.3695C20.326 14.826 20.4983 14.2921 20.8351 13.8648C21.1718 13.4374 21.6506 13.145 22.1845 13.0406L22.1683 12.61C22.1796 11.5781 22.6558 11.05 23.4358 10.53C23.8696 10.2407 24.2905 9.9385 24.622 9.555L24.6301 9.54688C24.7493 9.40929 24.856 9.25925 24.9503 9.09675L24.96 9.0805C25.0088 8.99275 25.0526 8.90175 25.0916 8.8075L25.2054 8.56375C25.3191 8.2875 25.6929 8.23875 25.8554 8.4825C26.0733 8.80506 26.3268 9.10213 26.611 9.36812L26.6208 9.37625C27.6039 10.2944 28.9185 10.8225 30.2933 10.8225H34.7783C35.0058 10.8225 36.0311 10.9216 36.3041 12.2102ZM14.5113 43.4525L14.0238 42.965C13.8292 42.7648 13.7203 42.4967 13.7203 42.2175C13.7203 41.9383 13.8292 41.6702 14.0238 41.47C14.43 41.0638 15.1125 41.0638 15.5188 41.47L16.3963 42.3475C16.7213 42.6725 17.1925 42.8025 17.6475 42.6888C19.6625 42.185 23.0263 41.08 25.6263 38.8213C26.3341 38.2103 26.9639 37.5145 27.5015 36.7494C27.9056 36.18 28.2632 35.579 28.5708 34.9521C28.977 34.1348 29.289 33.3157 29.5263 32.5471V32.5325H35.3763C35.2603 33.0493 35.1163 33.5909 34.944 34.1575C34.6555 35.112 34.2999 36.045 33.8796 36.9493C33.4114 37.96 32.8574 38.9288 32.2238 39.845C31.3984 41.0395 30.4266 42.1258 29.3312 43.0788C24.1865 47.5312 17.381 48.5713 16.6888 48.6769L16.64 48.685L16.5815 48.6931C16.1688 48.75 15.34 48.75 15.2604 48.75H13.5704C13.0666 48.75 12.6116 48.425 12.4979 47.9538C12.452 47.7543 12.4632 47.5459 12.5304 47.3525L12.4378 47.3184C12.2468 47.2373 12.0841 47.1014 11.9704 46.9278C11.8567 46.7543 11.7971 46.5508 11.7991 46.3434C11.7991 46.0184 11.9454 45.7259 12.1729 45.5309C11.9294 45.4732 11.7149 45.3298 11.5687 45.1269C11.4225 44.9239 11.3543 44.675 11.3766 44.4259C11.4048 44.1573 11.5319 43.9087 11.7331 43.7285C11.9343 43.5484 12.1953 43.4494 12.4654 43.4509L14.5113 43.4525Z" fill="#76168D"/>
</svg>
